<svg width="192" height="273" viewBox="0 0 192 273" fill="none" xmlns="http://www.w3.org/2000/svg">
<path fill-rule="evenodd" clip-rule="evenodd" d="M165.733 282.079C157.736 282.102 149.966 282.375 141.947 282.401C109.351 282.51 76.4537 282.353 43.7381 281.037C34.4921 280.666 32.1837 280.675 22.9774 280.099C17.5405 280.079 1.21283 279.631 2.02956 272.265C2.39027 258.544 5.80466 244.881 6.88 231.197C8.9445 205.472 10.7016 178.943 21.0649 154.883C23.4641 149.137 28.6162 145.38 33.7162 142.001C38.831 138.355 40.0856 134.308 44.8067 130.19C45.8049 129.319 51.4721 128.965 54.5223 126.757C58.961 123.542 61.1616 118.28 62.8177 117.383C64.0371 116.724 64.0145 112.176 66.4567 110.566C69.735 108.407 80.1788 106.8 83.9789 106.5C87.6258 106.211 93.9702 106.817 97.3925 108.146C103.098 110.362 105.375 114.589 107.887 120.035C141.09 130.246 171.439 147.535 180.863 182.409C188.992 211.658 189.289 243.015 186.149 273.012C185.521 275.205 185.961 278.644 184.056 280.099C190.677 280.477 166.631 281.835 165.733 282.079Z" fill="#1B2742"/>
<path fill-rule="evenodd" clip-rule="evenodd" d="M15.0296 253.58C15.6566 253.267 16.3097 252.909 17.025 252.884C18.2554 252.841 18.2565 250.93 17.025 250.973C15.952 251.01 15.0081 251.458 14.063 251.929C12.9605 252.479 13.9305 254.127 15.0296 253.58ZM17.0262 199.784C16.1863 199.784 15.3408 199.89 14.6968 200.476C14.3131 200.825 14.3437 201.475 14.6968 201.828C15.0737 202.204 15.6679 202.175 16.0494 201.828C15.9249 201.941 16.0482 201.829 16.0935 201.804C16.1003 201.8 16.1068 201.796 16.1128 201.791C16.1246 201.789 16.1362 201.786 16.1478 201.782C16.2474 201.758 16.3459 201.733 16.4478 201.715C16.4489 201.72 16.6606 201.701 16.7104 201.699C16.8156 201.696 16.9209 201.694 17.0262 201.694C17.2788 201.691 17.5202 201.589 17.6989 201.411C17.8776 201.233 17.9794 200.991 17.9826 200.739C17.9826 200.223 17.5423 199.783 17.0262 199.784ZM26.0199 221.221C26.2938 222.421 28.1387 221.911 27.8648 220.714C27.4675 218.973 27.54 217.189 27.8648 215.442C28.0889 214.238 26.2451 213.726 26.0199 214.934C25.6305 217.03 25.5434 219.132 26.0199 221.221ZM28.4364 152.535C29.8614 152.197 31.2706 152.157 32.7273 152.157C33.9599 152.156 33.9587 150.245 32.7273 150.245C31.1019 150.245 29.515 150.315 27.9282 150.693C26.7284 150.977 27.24 152.819 28.4364 152.535ZM33.2106 199.088L35.6893 197.849C36.7917 197.298 35.8217 195.65 34.7238 196.199L32.2451 197.437C31.1427 197.988 32.1115 199.636 33.2106 199.088ZM33.5547 236.724C34.6028 238.234 36.0764 239.171 37.8444 239.64C39.0385 239.955 39.5421 238.112 38.3537 237.797C37.0883 237.462 35.9655 236.853 35.206 235.76C34.5088 234.755 32.8506 235.711 33.5547 236.724ZM40.1647 169.434C40.4476 168.905 40.8755 168.681 41.4052 168.669C42.6355 168.642 42.6366 166.73 41.4052 166.759C40.1975 166.786 39.0894 167.392 38.5133 168.47C37.9315 169.555 39.584 170.519 40.1647 169.434ZM52.2982 182.425C52.6411 182.798 53.3055 182.789 53.6507 182.425C53.8615 182.204 54.0395 181.953 54.1793 181.681C54.2325 181.577 54.2823 181.472 54.34 181.372C54.3669 181.327 54.3952 181.283 54.4249 181.239L54.477 181.186C54.6518 181.005 54.7494 180.763 54.7494 180.511C54.7494 180.259 54.6518 180.017 54.477 179.836C54.134 179.463 53.4696 179.472 53.1244 179.836C52.9139 180.058 52.7362 180.307 52.597 180.579C52.5438 180.682 52.494 180.788 52.4351 180.889C52.4091 180.933 52.3797 180.977 52.3502 181.02L52.2982 181.073C52.1233 181.255 52.0256 181.497 52.0256 181.749C52.0256 182.001 52.1233 182.243 52.2982 182.425ZM53.318 210.647C53.9223 210.927 54.5807 211.073 55.2472 211.073C55.9137 211.073 56.5722 210.927 57.1765 210.647C57.6484 210.431 57.7605 209.75 57.5194 209.339C57.241 208.862 56.6807 208.782 56.211 208.996C55.6462 209.254 54.8482 209.254 54.2834 208.996C53.8126 208.78 53.2568 208.857 52.975 209.339C52.7328 209.753 52.8483 210.432 53.318 210.647ZM56.7158 230.622C56.9308 231.127 57.3926 231.396 57.9325 231.418C58.4679 231.438 58.8674 230.964 58.889 230.462C58.9037 230.138 58.7282 229.861 58.477 229.69L58.4758 229.637C58.4758 229.101 58.0378 228.704 57.5194 228.68C57.0033 228.658 56.563 229.137 56.563 229.637C56.563 229.973 56.5845 230.308 56.7158 230.622ZM61.6518 262.379C63.1787 262.403 64.6705 262.767 66.1973 262.792C67.4299 262.811 67.4265 260.901 66.1973 260.881C64.6705 260.856 63.1787 260.493 61.6518 260.468C60.4181 260.448 60.4215 262.359 61.6518 262.379ZM68.0004 139.905C68.8934 140.755 69.9981 141.174 71.0858 141.705C72.1894 142.244 73.1583 140.595 72.0524 140.055C71.13 139.605 70.109 139.273 69.353 138.554C68.4611 137.705 67.1062 139.055 68.0004 139.905ZM70.3988 161.934C71.0258 161.621 71.6789 161.264 72.3954 161.239C73.6246 161.196 73.6268 159.285 72.3954 159.328C71.3213 159.365 70.3784 159.813 69.4333 160.284C68.3298 160.833 69.2998 162.481 70.3988 161.934ZM81.8984 250.347C82.1814 249.817 82.6081 249.594 83.1378 249.582C84.3693 249.553 84.3704 247.642 83.1378 247.67C81.9313 247.698 80.8232 248.304 80.2459 249.383C79.6653 250.468 81.3178 251.432 81.8984 250.347ZM85.8803 208.845C86.2617 208.497 86.2346 207.848 85.8803 207.494L84.6409 206.255C84.2629 205.878 83.6698 205.906 83.2883 206.255C82.908 206.605 82.9341 207.253 83.2883 207.607L84.5277 208.845C84.9069 209.224 85.4989 209.195 85.8803 208.845ZM90.5764 273.525C91.9561 273.493 93.2498 273.097 94.5492 272.666C95.7139 272.278 95.2113 270.433 94.041 270.822C92.9114 271.197 91.7773 271.586 90.5764 271.614C89.3449 271.643 89.3449 273.554 90.5764 273.525ZM96.7744 232.656C98.0206 232.622 99.0551 231.987 99.93 231.138C100.814 230.279 99.4603 228.928 98.5774 229.786C98.076 230.272 97.4988 230.725 96.7744 230.744C95.5441 230.779 95.5429 232.69 96.7744 232.656ZM92.9261 180.098C92.9103 180.606 92.6952 181.152 92.3794 181.487C91.5339 182.381 92.8854 183.734 93.732 182.838C94.4303 182.099 94.8095 181.109 94.8389 180.098C94.874 178.866 92.9612 178.871 92.9261 180.098ZM107.517 138.473C107.918 137.69 108.443 136.771 109.241 136.339C110.324 135.752 109.357 134.102 108.274 134.688C107.19 135.277 106.413 136.436 105.865 137.508C105.306 138.603 106.958 139.569 107.517 138.473ZM109.997 158.349C110.441 158.333 110.882 158.264 111.31 158.144C111.492 158.094 111.673 158.038 111.856 157.988C111.934 157.967 112.267 157.925 112.063 157.936C112.581 157.908 113.02 157.521 113.02 156.98C113.02 156.484 112.58 155.998 112.063 156.025C111.353 156.063 110.708 156.418 109.997 156.437C108.766 156.472 108.765 158.384 109.997 158.349ZM116.195 188.898H118.262C119.494 188.898 119.492 186.986 118.262 186.986H116.195C114.962 186.986 114.964 188.898 116.195 188.898ZM118.606 273.395C119.232 273.708 119.969 274.004 120.477 274.483C121.372 275.329 122.727 273.979 121.83 273.132C121.184 272.522 120.357 272.138 119.57 271.744C119.106 271.513 118.537 271.618 118.262 272.087C118.013 272.512 118.143 273.164 118.604 273.395M123.221 249.247C123.302 249.225 123.384 249.208 123.467 249.197C123.792 249.154 124.132 249.169 124.46 249.169C125.692 249.168 125.69 247.256 124.46 247.258C123.488 247.259 122.479 247.272 121.717 247.95C121.33 248.295 121.366 248.952 121.717 249.301C122.096 249.681 122.684 249.645 123.07 249.301C123.029 249.339 123.168 249.262 123.221 249.247ZM124.458 216.77C124.181 216.197 124.175 215.824 124.175 215.187C124.175 213.956 122.263 213.957 122.263 215.187C122.263 216.112 122.401 216.897 122.806 217.734C123.032 218.201 123.696 218.322 124.115 218.078C124.585 217.803 124.684 217.233 124.458 216.77ZM129.99 171.938C131.099 172.314 132.091 172.849 133.067 173.493C134.098 174.173 135.056 172.517 134.033 171.843C132.935 171.11 131.748 170.522 130.499 170.094C129.329 169.697 128.831 171.543 129.99 171.938ZM136.441 139.773C137.267 139.795 138.117 140.111 138.852 140.468C139.956 141.002 140.924 139.354 139.818 138.817C138.767 138.308 137.62 137.894 136.443 137.861C135.209 137.826 135.213 139.738 136.443 139.773M139.334 225.638C139.659 225.653 139.937 225.478 140.107 225.226L140.161 225.225C140.697 225.225 141.094 224.787 141.118 224.27C141.141 223.754 140.661 223.313 140.161 223.314C139.823 223.314 139.488 223.335 139.175 223.467C138.668 223.681 138.398 224.143 138.378 224.682C138.358 225.218 138.833 225.616 139.334 225.638ZM144.038 159.554C145.213 159.937 145.714 158.091 144.548 157.71C143.18 157.264 141.783 156.918 140.415 156.471C139.24 156.088 138.741 157.934 139.906 158.315C141.274 158.761 142.672 159.107 144.038 159.554ZM148.328 195.627C148.694 196.8 150.54 196.296 150.173 195.118C149.821 193.982 149.796 192.838 149.795 191.657C149.795 190.425 147.882 190.427 147.882 191.657C147.882 193.001 147.927 194.332 148.329 195.627M161.119 238.833C161.15 239.062 161.262 239.273 161.435 239.427C161.608 239.581 161.829 239.669 162.061 239.674C162.565 239.697 163.035 239.219 163.017 238.719C162.998 238.253 162.805 237.811 162.474 237.481C162.144 237.151 161.702 236.957 161.235 236.937C160.699 236.917 160.301 237.391 160.278 237.893C160.256 238.381 160.663 238.762 161.119 238.833ZM167.591 183.909C168.603 184.246 169.683 184.567 170.475 185.315C171.37 186.159 172.725 184.81 171.828 183.964C170.783 182.978 169.439 182.513 168.101 182.067C166.928 181.676 166.43 183.522 167.591 183.909ZM171.978 221.037C172.256 221.512 172.819 221.596 173.287 221.379C173.914 221.088 174.606 221.098 175.283 221.097C176.517 221.096 176.515 219.185 175.283 219.186C174.24 219.186 173.278 219.285 172.321 219.729C171.85 219.948 171.736 220.623 171.978 221.037ZM174.457 266.094C174.992 266.114 175.391 265.64 175.413 265.139C175.436 264.65 175.029 264.269 174.572 264.198C174.542 263.969 174.43 263.758 174.257 263.604C174.084 263.45 173.862 263.362 173.631 263.357C173.127 263.335 172.656 263.813 172.674 264.313C172.694 264.779 172.888 265.221 173.218 265.551C173.548 265.881 173.99 266.075 174.457 266.094ZM0.177368 273.321C0.502213 272.152 1.24583 271.209 1.80724 270.157C1.99626 269.804 2.0619 269.583 2.16377 269.323C2.23726 269.474 2.35324 269.601 2.49754 269.687C2.64186 269.774 2.80826 269.817 2.97646 269.81C3.7529 269.81 4.66177 269.761 5.38617 270.092C5.85815 270.308 6.41277 270.231 6.6946 269.749C6.93681 269.336 6.82135 268.657 6.35164 268.441C5.28316 267.953 4.13547 267.899 2.97646 267.899C2.69009 267.899 2.47391 268.004 2.32111 268.162C1.87743 262.104 1.88873 256.04 2.30751 249.977C2.75461 243.499 3.78345 237.149 4.85872 230.753C5.38051 227.653 6.05736 224.521 5.92493 221.362C5.79362 218.226 4.44786 215.301 5.40202 212.156C5.78459 210.894 6.43993 209.738 6.86551 208.49C7.32164 207.148 7.28088 205.822 7.07376 204.432C6.64479 201.6 5.93512 198.803 7.0715 196.039C7.57291 194.814 8.38672 193.72 8.77835 192.453C9.26617 190.879 9.1994 189.137 9.28088 187.505C9.44501 184.213 9.48801 180.9 9.76079 177.614C9.88303 176.144 10.1479 174.748 10.7534 173.398C11.3352 172.098 12.1977 170.916 12.5825 169.538C12.9651 168.181 12.999 166.749 13.2039 165.361C13.4201 163.896 13.757 162.45 14.2112 161.04C15.9667 155.584 19.1824 150.682 22.982 146.431C27.0216 141.913 31.8489 138.512 36.9728 135.342L45.0554 130.341C45.0839 130.51 45.159 130.667 45.2721 130.796C45.3853 130.924 45.5321 131.019 45.696 131.069C46.7068 131.406 47.7866 131.727 48.5789 132.474C49.4742 133.318 50.829 131.969 49.9315 131.123C48.9965 130.24 47.8194 129.776 46.623 129.367C47.85 128.595 49.0894 127.794 50.4747 127.348C51.687 126.957 53.4753 127.298 54.4589 126.41C55.2308 125.709 55.4742 124.412 55.7707 123.462C56.1419 122.28 56.4623 121.036 56.9331 119.89C57.2522 119.095 57.7188 118.368 58.3083 117.747C58.5664 116.753 59.0395 115.845 59.8771 115.294C62.0672 113.846 64.7576 115.284 65.7208 117.348C66.5177 117.345 67.3564 117.519 68.1317 117.568C69.7238 117.667 71.3186 117.713 72.9138 117.708C76.0366 117.702 79.1558 117.493 82.2516 117.083C87.7852 116.342 93.1536 114.848 98.5933 113.685C98.6249 113.611 98.6616 113.539 98.7031 113.47C99.8745 111.507 102.795 111.838 104.634 112.582C105.423 112.9 106.227 113.301 106.678 114.046C107.157 114.369 107.57 114.76 107.845 115.174C108.414 116.026 108.855 117.747 110.009 117.89C110.77 117.983 111.542 117.837 112.315 117.948C113.28 118.081 114.146 118.42 115.038 118.807C121.829 121.753 128.85 125.028 136.22 126.17C137.948 126.438 139.708 126.715 141.211 127.682C142.43 128.468 143.373 129.549 144.378 130.573C145.359 131.572 146.166 132.014 147.566 132.192C149.264 132.411 150.734 132.879 151.975 134.112C153.006 135.136 153.678 136.445 154.487 137.635C155.309 138.849 156.516 139.532 157.769 140.237C160.732 141.904 163.492 143.919 165.896 146.333C170.957 151.426 174.022 157.972 177.112 164.351C180.452 171.251 183.575 178.234 185.742 185.601C187.866 192.836 189.128 200.277 189.712 207.788C190.327 215.669 190.413 223.581 190.923 231.468C191.18 235.407 191.374 239.352 191.57 243.293C191.762 247.187 192.04 251.088 191.995 254.988C191.909 262.525 190.4 270.086 187.762 277.143C187.101 278.899 186.38 280.631 185.599 282.337C184.918 283.835 182.586 283.667 181.854 282.337C181.686 282.031 181.555 281.715 181.445 281.395C179.532 281.412 177.6 281.264 175.699 281.44C172.342 281.754 168.978 281.928 165.61 282.136C158.948 282.549 152.275 282.824 145.611 283.204C144.963 283.241 144.317 283.277 143.671 283.316C148.42 268.63 147.804 252.753 148.556 237.48C148.616 236.249 146.702 236.256 146.643 237.48C145.888 252.819 146.53 268.736 141.613 283.446C139.706 283.576 137.801 283.733 135.902 283.963C134.367 284.148 132.824 284.365 131.274 284.289C129.517 284.205 127.8 283.804 126.085 283.455C122.97 282.822 119.968 283.109 116.841 283.498C113.495 283.916 110.138 284.148 106.771 284.293C93.2894 284.884 79.7173 285.42 66.2403 284.521C62.9783 284.303 59.7231 283.997 56.4838 283.581C53.1459 283.154 49.8432 282.435 46.5076 282.026C43.2196 281.625 40.1964 282.726 36.9468 282.929C33.6327 283.137 30.2304 282.446 26.9469 282.05C25.8752 281.921 24.8033 281.794 23.7313 281.669C25.1121 272.215 25.8965 262.689 26.6594 253.167C26.7578 251.938 24.8439 251.95 24.7465 253.167C23.9905 262.614 23.2231 272.069 21.8445 281.45C16.1592 280.788 10.4682 280.12 4.84174 279.09C3.24016 278.799 1.64766 278.323 0.68898 276.894C-0.0218353 275.836 -0.164459 274.539 0.177368 273.321Z" fill="#FAFCFE"/>
<path fill-rule="evenodd" clip-rule="evenodd" d="M28.9151 61.2805C31.1125 49.3891 36.5317 38.0738 44.8543 29.22C45.8149 28.1691 46.6777 26.5116 48.1431 26.2454C49.6141 23.272 52.4186 21.1691 54.6593 18.7673C59.5521 13.9266 64.2335 8.5176 70.5439 5.46185C99.8134 -6.48375 127.98 27.5749 133.956 53.189C139.894 73.7888 133.41 102.205 107.682 103.038C104.042 107.815 99.0199 111.122 93.86 114.075C86.8151 118.55 79.1291 120.367 70.9782 117.876C62.8614 119.981 54.4467 113.227 49.5675 107.304C45.7114 102.716 43.0695 97.1151 39.542 92.3657C35.3778 92.2631 31.7798 88.7642 31.2228 84.6643C27.3337 77.5719 27.51 69.0744 28.9151 61.2805Z" fill="#EBF2FB"/>
<path fill-rule="evenodd" clip-rule="evenodd" d="M92.7398 0.805135C87.4474 -0.441754 81.8963 -0.183268 76.6526 1.1866C66.2611 3.90357 57.7101 10.9681 50.6201 18.8435C43.6863 26.5436 38.0198 35.3125 33.8358 44.8175L33.6256 45.3014C30.6789 52.0642 28.1186 59.0924 28.009 66.5384C27.9141 72.9482 28.557 79.6245 30.61 85.72C32.4392 91.1505 35.8051 96.622 41.5935 97.9235C44.9323 106.479 51.463 113.887 59.6908 117.852C64.7933 120.311 70.3964 121.408 76.0379 120.863C81.7947 120.306 87.1706 117.517 91.6687 113.962C91.793 113.864 91.6336 113.675 91.506 113.749C86.0905 116.896 79.6852 118.021 73.481 117.813C63.2872 117.474 53.9408 111.926 48.5705 103.206C47.2339 101.036 46.043 98.7468 45.0939 96.3658C45.2254 95.9182 45.2114 95.44 45.0541 95.001C44.8968 94.562 44.6043 94.1851 44.2194 93.9255C43.9516 93.084 43.7154 92.2323 43.5177 91.3714C43.0703 89.4219 42.8206 87.444 42.6703 85.449C42.5483 83.8297 42.6161 82.1114 42.4545 80.45C42.5106 79.1185 42.5973 77.7886 42.7144 76.4611C43.0997 72.1852 43.8781 67.9208 45.3775 63.8897C46.8972 59.8075 49.297 56.208 52.324 53.1084C58.8174 46.4629 66.9017 41.6109 73.2155 34.7831L73.5465 34.4222L73.5691 34.4153C74.3521 35.225 75.1351 36.0346 75.9204 36.8431L79.5078 40.5325C86.8283 48.0685 94.09 55.6785 100.459 64.0651C104.127 68.8944 107.421 73.9571 110.26 79.325C111.602 81.868 112.825 84.4732 113.925 87.132L114.359 88.191C114.874 89.4572 115.432 90.8749 115.742 92.3051C114.821 93.2264 114.146 94.5803 113.402 95.6268C112.556 96.8133 111.582 97.9418 110.578 98.9962C109.563 100.063 108.45 101.086 107.268 101.961L107.125 102.065C105.77 103.035 104.213 103.706 104.009 105.553C103.92 106.355 104.632 107 105.29 107.25C107.094 107.933 108.961 105.972 110.163 104.843C110.908 104.14 111.602 103.384 112.239 102.581C112.862 102.67 113.488 102.715 114.107 102.641C115.066 102.526 116.016 102.357 116.952 102.109C124.707 100.056 130.447 93.5657 133.544 86.336C137.702 76.6308 137.605 65.4441 135.877 55.1809C132.718 36.4263 122.496 18.9106 107.062 7.82187C102.739 4.71661 97.9452 2.03039 92.7398 0.805135ZM84.3843 3.31371C94.3555 2.78421 103.447 7.96762 110.74 14.4218C124.021 26.1711 132.201 43.3736 133.846 61.0395C134.72 70.4248 134.066 80.5423 129.212 88.8344C127.329 92.0523 124.903 94.8559 122.04 97.2198C119.342 99.4471 116.266 100.732 112.978 101.605C113.926 100.304 114.706 98.8879 115.3 97.3895C115.312 97.4016 115.327 97.411 115.343 97.4169C115.359 97.4228 115.376 97.4252 115.393 97.4238C115.41 97.4224 115.427 97.4172 115.442 97.4088C115.457 97.4003 115.47 97.3887 115.48 97.3747C117.555 94.5029 116.906 91.0776 115.916 87.9211C114.879 84.6097 113.565 81.3872 112.064 78.2614C106.596 66.872 98.4615 56.9482 90.019 47.6893C85.7074 42.9602 81.2523 38.3678 76.813 33.7606C74.593 31.4626 72.3897 29.1483 70.2032 26.8179C69.1174 25.6564 68.0372 24.4881 66.9672 23.3106C65.9097 22.1469 64.9572 20.9136 63.6409 20.0425C62.5901 19.3479 61.5415 20.6756 62.033 21.6629C62.7878 23.1819 64.0861 24.3867 65.234 25.6222L65.3526 25.7497C66.4732 26.9679 67.6023 28.178 68.74 29.38C70.0489 30.762 71.3648 32.1372 72.6878 33.5055C71.5602 33.3746 70.419 33.2983 69.2982 33.1275C67.7762 32.894 66.2746 32.5513 64.7809 32.1778C63.2031 31.7874 61.6562 31.2796 60.1529 30.6587C58.744 30.0734 57.4118 29.134 55.8616 29.0418C54.5499 28.9643 54.1397 30.6018 54.8662 31.4649C55.8684 32.6526 57.6706 33.1206 59.136 33.5613L59.3428 33.6239C60.9643 34.1219 62.6204 34.4972 64.2973 34.7467C66.5028 35.0769 69.0519 35.2272 71.4111 34.8902C66.6995 37.6755 62.363 41.128 58.0401 44.4941L57.2763 45.0873C53.0528 48.3645 48.9298 51.8968 45.9176 56.3799C43.1053 60.5658 41.4082 65.4384 40.4557 70.3758C39.9857 72.8115 39.675 75.2734 39.4671 77.7456C38.692 79.9365 38.8163 82.5418 39.0117 84.9525L39.0807 85.7849L39.0762 86.0286C39.0468 87.5362 38.4457 90.8931 39.8614 92.0307C39.8851 92.1525 39.9077 92.2744 39.9326 92.3951C39.7563 92.2858 39.5823 92.173 39.4106 92.0569C39.3394 92.0091 39.2705 91.9567 39.2016 91.9043L39.005 91.7426L38.9869 91.7267C38.5474 91.3372 38.1282 90.9319 37.7373 90.4935C37.0164 89.6827 36.3305 88.6522 35.6809 87.4656C34.2527 84.8568 33.3409 82.0203 32.6347 79.0881C31.3455 73.7271 30.8133 67.9697 31.402 62.4709C31.5054 61.5541 31.6765 60.6463 31.9138 59.7551C33.7791 52.717 36.4571 45.9237 39.893 39.5145C44.5346 30.8409 50.5071 22.8221 57.6627 16.0923C64.9097 9.27829 74.3081 3.84891 84.3843 3.31371ZM98.4457 31.0265C98.0864 30.8056 97.7169 31.2349 97.8954 31.5822C98.7587 33.2618 100.211 34.6795 101.416 36.1188C102.664 37.6105 103.906 39.1072 105.141 40.6088C107.665 43.6612 110.11 46.7777 112.477 49.9553L113.1 50.798C115.176 53.606 117.225 56.4585 119.04 59.4431C119.982 61.0042 120.832 62.6202 121.584 64.2826C122.308 65.8654 122.641 67.775 123.51 69.2622C123.565 69.3556 123.735 69.3487 123.755 69.2303C124.039 67.6293 123.338 65.7003 122.838 64.2018C122.243 62.4185 121.396 60.7207 120.49 59.0798C118.598 55.6591 116.332 52.4525 114.056 49.2835C111.75 46.0628 109.338 42.9197 106.826 39.8595C105.645 38.4247 104.432 37.0173 103.188 35.6383L102.72 35.1225C101.415 33.6957 100.1 32.0445 98.4457 31.0265ZM104.492 26.0526C103.901 25.6108 103.396 26.5138 103.773 26.9921C106.026 29.8502 108.59 32.418 111.056 35.0826C113.427 37.6392 115.686 40.2999 117.824 43.057C122.178 48.6845 125.663 54.8598 128.616 61.3322C128.672 61.454 128.847 61.3629 128.82 61.2445C127.256 54.2449 123.6 47.8874 119.438 42.1415L119.28 41.9251C115.07 36.1473 110.229 30.341 104.492 26.0526Z" fill="#1B2742"/>
<path fill-rule="evenodd" clip-rule="evenodd" d="M60.1234 102C61.6386 102.012 63.3412 101.435 64.4796 100.983L64.7768 100.863C65.7615 100.463 66.7743 100.002 67.5292 99.2304C67.7703 98.9799 68.0271 98.6952 68.1572 98.3969C68.2346 98.2215 68.266 98.0405 68.192 97.8606C67.9195 97.8332 67.6604 97.7979 67.4159 97.7524C67.2992 97.7308 67.1871 97.7091 67.1018 97.708C66.7855 97.7057 66.4726 97.7467 66.1608 97.7866L66.0251 97.8036C65.7817 97.8344 65.5406 97.8674 65.2995 97.9004C64.5974 97.9961 63.8986 98.0917 63.1864 98.1259C62.6716 98.1509 62.1321 98.1213 61.5882 98.0917C60.1772 98.0132 58.718 97.9073 57.6312 98.9116C57.3463 99.1735 57.2274 99.5049 57.2274 99.8431C57.2274 100.253 57.3968 100.67 57.6559 100.998C58.2425 101.739 59.1465 101.992 60.1234 102ZM51.8652 89.0709C52.5247 90.0752 53.6227 90.7208 55.1267 90.6502C58.1157 90.5125 61.6835 89.3669 64.188 87.7101C64.8396 87.2785 65.2624 86.5896 65.3387 85.8506L65.4733 84.5365L66.2023 85.6308L66.4311 85.9724C66.642 86.2856 66.8528 86.5987 67.0525 86.9198C67.8158 88.1434 68.5166 89.406 69.1521 90.7026C69.603 91.6273 69.9316 92.6623 70.2613 93.7054C70.8188 95.467 71.3571 97.199 72.5482 98.4368C72.7277 98.6246 73.0047 98.6918 73.2582 98.6588C73.4814 98.6292 73.7001 98.5176 73.8066 98.2967C75.2299 95.3588 73.3165 91.8186 71.7642 89.3567L71.6005 89.0993C70.1604 86.8754 67.8107 83.9318 65.1189 83.5322L64.8104 84.0309L64.3629 83.728C63.6294 83.2315 62.6626 83.2543 61.8158 83.6426L60.969 84.0309C59.3921 84.7494 57.8376 85.4122 56.1317 85.7754C55.8909 85.826 55.6489 85.8708 55.406 85.9098C55.4319 85.7923 55.4584 85.6751 55.4856 85.5579C55.5148 85.4338 55.544 85.3085 55.5754 85.1856C55.6072 85.0575 55.6408 84.93 55.6763 84.803C55.811 84.297 55.969 83.7977 56.1496 83.3067C56.8383 81.4631 57.9385 79.7391 59.0085 78.0948L59.1341 77.9012C59.2878 77.6655 59.456 77.4207 59.6288 77.1656C60.4632 75.946 61.3885 74.6217 61.4547 73.2917C60.3466 73.3623 59.4201 74.0615 58.6047 74.6695C57.485 75.5087 56.4472 76.4551 55.5058 77.4958C53.681 79.5068 52.0424 82.078 51.3235 84.7358C50.913 86.2571 51.0935 87.8946 51.8652 89.0709ZM81.0733 73.9089V73.8554C81.0711 72.3204 80.1907 68.8166 78.0148 68.8166C76.6566 68.8166 75.8311 71.201 75.6887 73.6595L75.683 73.7597C75.6202 75.2879 76.033 78.6288 78.0148 78.6288C80.0179 78.6288 81.0532 75.4644 81.0733 73.9089ZM49.0478 73.4284V73.3737C49.0511 71.8387 49.9305 68.3349 52.1063 68.3349C53.4309 68.3349 54.2485 70.6021 54.4213 72.9934L54.4336 73.1778C54.5188 74.6547 54.133 78.1472 52.1063 78.1472C50.1032 78.1472 49.0691 74.9827 49.0478 73.4284ZM73.7472 63.5227C74.0354 63.5569 74.3226 63.6024 74.6097 63.6479C75.4453 63.7846 76.2775 63.9463 77.1041 64.1353C78.6752 64.5009 80.2278 64.944 81.7564 65.4631C83.1853 65.9436 84.5917 66.4879 85.9982 67.0299L86.2236 67.1165C86.7205 67.3089 87.2151 67.5241 87.7109 67.7393C88.4668 68.0673 89.2261 68.3975 90 68.6469C87.9598 65.7808 84.8161 63.6582 81.79 62.1392C80.0639 61.2715 78.2335 60.5723 76.3908 59.9995L75.3656 59.6875C73.8549 59.2343 72.2039 58.8164 70.784 59.7194C70.2232 60.0758 69.8654 60.6304 69.7521 61.2305C69.6948 61.5347 69.7022 61.8479 69.774 62.149C69.8458 62.4501 69.9802 62.7321 70.1682 62.9761C70.5159 63.4339 70.9511 63.6958 71.4132 63.7846C71.9224 63.8837 72.463 63.7755 72.9554 63.509C73.3501 63.4783 73.4657 63.4897 73.5823 63.5022L73.7472 63.5227ZM51.024 63.8142C52.0252 63.5934 53.0496 63.4993 54.0736 63.5341C54.5349 63.5575 54.9942 63.6115 55.4486 63.6958C56.1519 63.8108 56.8517 63.9292 57.6088 63.7903C58.0036 63.7174 58.3401 63.4828 58.6003 63.1754C58.8993 62.8194 59.0964 62.3869 59.17 61.9251C59.2362 61.4753 59.17 61.0824 59.0063 60.7351C58.8122 60.3252 58.487 59.979 58.0933 59.6761C56.9011 58.7595 54.8553 58.9804 53.4488 59.1648C52.0581 59.3493 50.6752 59.7866 49.4471 60.4823C48.2361 61.1615 47.1825 62.0961 46.3571 63.2232C45.664 64.1763 45.3376 65.2729 45 66.3888C46.587 65.0372 49.0141 64.2572 51.024 63.8153V63.8142Z" fill="#1B2742"/>
<path fill-rule="evenodd" clip-rule="evenodd" d="M82.7291 104.031C80.7854 99.4419 76.541 96.0696 71.6555 94.8356C68.0681 93.9336 64.3023 93.9622 60.6456 94.3205C58.7291 94.5071 56.674 94.6593 54.8678 95.3771C53.3253 95.9895 52.0693 97.1468 51.1235 98.5056C49.9994 100.116 49.2343 101.959 48.6967 103.848C48.6205 104.117 48.5489 104.387 48.4819 104.66C48.716 106.085 49.2116 107.298 50.5222 108.194C51.801 109.069 53.3264 109.427 54.8473 109.554C54.9919 109.485 55.134 109.411 55.2736 109.332C57.6436 107.964 59.3111 104.734 62.3029 105.171C64.9729 105.562 66.7303 108.947 68.3182 110.93C73.414 111.529 78.5063 109.986 82.653 107.05C82.857 106.056 82.8828 105.034 82.7291 104.031ZM45.0184 100.55C45.4259 99.3981 45.938 98.2864 46.5484 97.2292C48.565 93.7417 51.6379 90.9965 55.3168 89.3959C63.9908 85.655 75.2145 88.2924 82.2199 94.4292C84.6126 96.5275 87.0326 99.6102 87.7647 102.926C87.9886 102.975 88.1946 103.085 88.3592 103.246C93.4208 100.035 98.6325 96.9465 102.711 92.497C105.673 89.2632 107.733 85.4364 108.995 81.2318C109.098 80.8861 109.652 80.9365 109.635 81.32L109.621 81.5878C109.673 81.423 109.922 81.5077 109.941 81.668C110.62 86.7757 111.469 92.1913 110.687 97.3265C110.22 100.39 108.839 102.632 106.992 105.054C105.013 107.651 102.773 110.065 100.483 112.381C99.0292 113.85 97.5118 115.546 95.7317 116.624C93.6618 117.876 91.3145 118.828 89.106 119.794C86.8611 120.787 84.575 121.684 82.254 122.48C77.6084 124.065 72.807 125.159 67.9215 125.639C64.0102 126.021 59.5396 126.438 55.7908 124.955C52.9184 123.82 50.5995 121.766 48.7592 119.296C46.7575 116.605 45.1741 113.539 44.2989 110.308C43.3895 106.95 44.8274 101.09 45.0184 100.55Z" fill="#1B2742"/>
<path fill-rule="evenodd" clip-rule="evenodd" d="M47.9949 61C42.3663 61 39.1541 62.2153 37.9771 62.3099L37.9419 62.3133C37.4527 62.344 37.0135 62.3851 36.5526 62.5639C34.858 63.2188 34.5822 65.0037 35.5708 66.1279C35.6401 68.4538 35.3359 71.1726 35.858 73.5065C36.5038 83.3454 41.1121 85.005 43.7328 85.6109C45.0484 85.9162 46.6068 86.0369 48.004 85.7157C50.4062 85.6199 52.7389 84.8801 54.7597 83.5732C57.5678 81.7553 59.6528 78.9601 60.3304 75.6444C60.6505 74.0635 60.8003 72.4187 60.6255 70.8116L60.6006 70.5906C61.5131 70.1521 62.571 70.0689 63.6606 70.0302C64.1714 70.0056 64.683 70.0014 65.1941 70.0177C65.681 70.0723 66.1622 70.1441 66.6458 70.2432C67.1979 70.4079 67.7058 70.6956 68.1315 71.0849L68.1633 71.6943C68.2499 73.2217 68.4479 74.7407 68.7558 76.239C69.2098 78.443 69.9385 80.5491 71.4912 82.113C72.0274 82.9165 72.6915 83.6261 73.4571 84.2133C76.3253 86.4299 80.2219 87.2443 83.7984 86.9379C91.0581 86.316 95.2543 80.5297 96.2225 78.0569L96.2792 77.9065C96.9784 76.0682 97.5357 73.683 99.7434 73.2878L100.212 73.2024C101.22 73.0133 102.15 72.749 102.74 71.7615C102.992 71.3347 103.137 70.8534 103.164 70.3582C103.509 70.3844 103.853 70.4106 104.196 70.4345C106.933 71.0154 123.341 71.5086 124.651 71.5086C124.651 71.5086 127.168 72.5714 128.23 71.7478C128.968 71.1749 129.21 70.4106 128.805 69.545C128.192 68.2431 125.369 67.4605 124.116 67.2122C124.116 67.2122 103.885 67.3808 102.429 67.104C101.529 66.17 99.917 66.2987 98.5709 66.1507C97.4563 65.3533 95.8967 64.818 94.6641 64.4615C94.4132 64.3658 94.1647 64.2736 93.9229 64.1859C91.6653 63.3794 89.3181 62.9512 86.9345 62.7222C84.4771 62.4876 82.013 62.5935 79.5693 62.9295C78.5403 63.0671 77.5184 63.2533 76.5069 63.4876C74.6943 63.7268 72.8907 64.1232 71.0769 64.5925L70.7137 64.687C68.8035 65.1893 66.841 65.6244 64.8638 65.2839C63.2532 65.0082 61.705 64.3863 60.2203 63.7132L60.0274 63.6255C56.7642 62.1288 51.6667 61 47.9949 61ZM76.7033 66.4707C77.9076 66.2042 78.4217 68.0688 77.2141 68.3353C76.3583 68.5244 75.6341 68.9572 75.1438 69.6908L75.0927 69.7705C74.4344 70.8207 72.7727 69.8502 73.4344 68.7943C73.797 68.2076 74.2731 67.6997 74.8345 67.3006C75.396 66.9015 76.0314 66.6193 76.7033 66.4707ZM41.4333 65.3146C41.8578 65.0151 42.5002 65.2372 42.7465 65.662C43.0178 66.129 42.8396 66.6496 42.4423 66.9548L42.4015 66.9844C42.0371 67.243 41.6818 67.7054 41.6376 68.1793L41.633 68.2385C41.5854 69.4789 39.6649 69.4846 39.7137 68.2385C39.7602 67.0197 40.464 66.0003 41.4333 65.3146Z" fill="#1B2742"/>
</svg>
